<svg id="Capa_1" data-name="Capa 1" xmlns="http://www.w3.org/2000/svg" viewBox="0 0 824.1 1014.27"><defs><style>.cls-1,.cls-2{stroke:#000;stroke-miterlimit:10;}.cls-2{fill:none;stroke-width:3px;}</style></defs><title>pajaroloco</title><path class="cls-1" d="M834.66,1142.85c1.84.37,3.68.72,5.53,1.08C839.08,1142.11,836.73,1142.41,834.66,1142.85Z" transform="translate(-323.37 -177.67)"/><path class="cls-2" d="M969.7,235.52a57,57,0,0,1-23.44-9.3c-32.85-22.07-69-36.68-107.39-45.81-3-.71-6.81-2.83-8.77.93s2,5.77,4.3,7.65a198.81,198.81,0,0,1,28.66,28.62c4.08,4.95,8.54,9.63,1,15.37-1,.74-1.39,2.64-1.48,4-.53,8.22-4.66,11-12.37,8.22q-17.82-6.47-35.66-12.95c-.79-.29-1.56-.76-1.15-1.87,1.63-1.9,4.72.58,6.91-3.35-8.78,1.11-16.75,1.83-24.68-.13-31.5-7.76-63.4-13.29-95.84-14.81-57.63-2.68-112.6,6.55-162.23,38-3.58,2.26-11.07,3-8.64,9,2,4.77,8.52,2.09,13,1.78,39.31-2.71,78.25-.52,116.59,8.84,13,3.17,25.95,6.54,38,12.77a71.28,71.28,0,0,1-12-.61c-24.39-2.38-48.73-2.71-73,1.77-61.36,11.36-110.14,44-151.26,89.54-2.18,2.42-6,5.21-3,9,2.57,3.27,5.95.63,8.88-.45,50.86-18.73,103-28.71,157.44-23.18a240.2,240.2,0,0,1,44.21,8.61c-2.53,3.32-5.32,3.17-7.78,3.82-35.23,9.35-67.07,25.18-94.34,49.63-2.72,2.44-7.12,5.27-4.57,9.39,2.41,3.89,6.49.63,9.6-.45,75.22-26.07,171.59.59,222.64,61.68,28.27,33.82,33.77,75.33,15,112A25.16,25.16,0,0,1,797,614.84c-10.71,5.48-21.83,10.42-31.19,18.19-4.42,3.67-8.69,4.54-14.51,3.52-15.85-2.77-33.07,6.29-38.41,19.25,8-2.71,16-5.5,24.11-8,2.18-.69,5.32-1.38,6.57.82,1.47,2.58-1.69,3.93-3.25,5.46a171.93,171.93,0,0,0-33.89,47.05c-3.27,6.58-5.66,13.77-9.85,19.69-21.55,30.48-32,64.61-34.62,101.47-.23,3.12-.42,5.31-4.16,6.61-22.45,7.82-33.72,23.62-32.7,47.62.16,3.72-1,6.21-4.3,7.84-6.33,3.12-12.45,6.71-19,9.4-47.06,19.43-93.32,14.84-138.8-5.39-44.88-20-83.39-49.41-119.94-81.68q-4.63-4.08-9.24-8.21c-2.25-2-4.88-4.45-7.67-2s-.29,5.4,1.05,7.94c.42.78,1,1.49,1.41,2.25,28.8,48,65.75,88.54,109,124,63.39,51.86,136,78.41,217.22,83.15,23.73,1.39,23.36,1.3,14.66,23.77-11.06,28.58-29.69,52.72-45.09,78.76-3.16,5.33-6.47,10.53-8,16.61-2.23,8.69.71,14.95,8.89,18.68,10.8,4.94,22.36,5.24,33.8,4.34,35.57-2.78,69-14.07,101.92-26.94,15.34-6,29.79-14,44.37-21.6,2.28-1.2,7.47-4.62,7.25.69-.19,4.85,1.19,11.08-5.27,15.4-5.78,3.87-12.56,10.12-13.66,16.26-1.92,10.7-8.71,17.66-13.72,26.06a140.27,140.27,0,0,0-11.41,23.58q6.64-2.49,13.28-5c8.31-17.31,21-31.65,36.88-43.89,4.22-3.26,5.89-2.3,7,2.58a203.44,203.44,0,0,1,3.81,22.6c28.57-11.66,56.71-24.19,84-38.32.88-6.09,1.77-12.18,2.62-18.28.45-3.24,2.35-4.51,5.45-4.46a101.53,101.53,0,0,1,26.49,3.59q5.71-3.39,11.35-6.91a81.29,81.29,0,0,0-15.84-5c-4-.85-7-3.12-6.16-8.11,2-12,7.73-22.47,12.86-33.2,6-12.58,16-22.39,24-33.57,3.54-4.95,4.57-11.63,10-15.34,6.87-4.7,11.73-11.76,18.21-16.51,9.27-6.8,38.26-34.8,44-41.71,9.64-13.28,7.23-52.66,7.23-52.66C1084,843.78,1090.43,789.29,1075,732c-1.31-4.87.18-8.05,4.74-12.21-.48,5.68.22,9.72,4.64,10.86s3.68-3.51,5.24-5.63c2.67-3.64,5-.92,7.52.51,7.06,4.08,9.08-2.94,12.71-6,3.25-2.78,1.89-5.38-.84-8.14-10.35-10.45-11.06-18.46-3.26-30.76,2.83-4.47,5.45-9.07,8.2-13.6,0,0,31.58-52.61,27.61-77,6.39-39.29,5.62-78.53-.92-117.72-.52-3.15-.88-7.14-5.18-7s-4.14,4.2-4.73,7.32c-4.83,25.23-11.43,49.91-22.39,73.26-5.43,11.56-11,23-19.3,33a84.92,84.92,0,0,1,1.21-13.22c5.64-41.33,6.68-82.72,0-124-7.45-45.77-26.12-87.11-51.71-125.45-4.42-6.62-8-13-5.76-21.22C1032.75,294.93,1029.2,242.88,969.7,235.52ZM673.88,795.22c6.81-31.55,18.72-60.61,43.19-83.08a61.16,61.16,0,0,1,18-11c13.72-5.77,27.93.43,35.85,15.52,5.42,10.33,7.48,21.58,8.49,33.09a9.76,9.76,0,0,1-2.32,7.34,76.57,76.57,0,0,0-4.92,6.21c-6.45,9.85-11.94,19.08-26.51,9.31-8.45-5.66-17.59,1.4-25.06,6.47-5,3.38-9,8.28-13,14.84,6.71-1,12-.82,13.5,5.41,1.88,7.82-1.75,14.68-6.78,20-4.17,4.4-9.61,2.79-13.86-1.61-6.87,21.08,8.61,43.9,29.71,44.43,2.5.06,5.66-1.15,6.58,2.53.78,3.14.95,6.17-1.35,9.16-17.41,22.73-47.54,19.52-58.72-6.68C666.61,843.67,668.66,819.35,673.88,795.22ZM981.8,983.06c-11.09,11.47-24.69,19-38.68,26a1246.56,1246.56,0,0,0-123.19,70.77c-47,30.78-97.87,51.88-153.86,59.62a79.36,79.36,0,0,1-24.18-.45c-12.54-2.16-14.77-6.85-8.34-17.78,7.78-13.22,15.55-26.47,24.12-39.18,12.76-18.91,22.2-39.29,29.3-60.87.82-2.49,1-6.56,4.83-5.46,4.58,1.32,1.05,4.65.38,6.76-10.28,32.83-27.06,62.31-46.71,90.3-2.73,3.88-6.64,8-4.06,12.79,2.85,5.29,8.83,5.15,14.19,5,22.88-.57,44.38-7.49,65.87-14.45,34.95-11.3,67.69-27.09,97.73-48.27,18.41-13,32.92-30,47.48-46.91a343.6,343.6,0,0,0,39.65-56.84c.95-1.7,1.85-3.35,3.64-4.45,11.72-7.2,21.72-16.58,31.79-25.8,3.79-3.46,7.29-4.53,12-2.46,5.86,2.59,11.83,5,17.8,7.28,2.42.95,4.66,3.24,7.69,1.61-9.1-18.46-65.45-33.82-92.29-22.88l50.29,8.45c-13.49,12.38-25.62,23.12-39.84,31.36-30,17.37-62.55,27.39-96.12,35.1-43.17,9.91-86.85,15.15-131,14-72-1.89-138.66-20.43-197.08-64.7-38.09-28.86-72.52-61-99.26-101.17,10,7.59,20,15.29,30.13,22.74,26.9,19.75,55.29,36.94,87.14,47.43,54.73,18,106.12,10.74,153.75-21.88C650.47,885,655.84,881,661.2,877c2.43-1.81,4.17-4.41,2.14-7.17s-5-1.67-7.37.16c-2.87,2.19-5.61,4.57-8.59,6.61-2.67,1.82-5.58,3.29-8.54,5-1.75-13.64,6.37-28,18.1-33,5.48-2.33,6.85.29,7.23,5.14a67.77,67.77,0,0,0,10.31,31.49C685.37,902.4,702.77,907,721,897.73c4.43-2.25,8.73-4.76,13.84-7.57,3.36,14.13,6.85,27.62,15,39.25,5.38,7.67,11.9,13.93,20.38,18.13,3.52,1.74,7.06,2.71,9.1,7.49,1.95,4.56,6.31,1.12,8.78-1.5,14-14.85,29.1-28.43,46.1-39.74,18.58-12.36,37.45-24.61,59.73-29.1,30.33-6.11,58.64.59,83.37,18.49C1001.64,920.77,1003,961.12,981.8,983.06ZM809.34,1074.2c3.74-35,29.79-56.22,68.28-65.39C857.8,1034.84,836.43,1057.23,809.34,1074.2ZM903.86,775c10.65,31.94,7.64,63.19-6.66,93.5-1,2.11-1.67,4.52-4.32,5.2s-5.76,2.45-7.48,1.52c-2.86-1.55-.48-4.74.24-7.09,3.27-10.58,4.42-21.32,2.2-32.21-3-14.44-10.14-25.6-24.89-30.47-13.9-4.59-24.6,2.58-34.66,10.3-4,3.05-8,7-10.09,13.16,7.33-2.11,12.54,0,14.78,7,1.78,5.59-4.45,22.17-9,24.72-4.79,2.66-9.08,1.5-15.82-4.73-1.31,18.66,1.39,35.14,17.13,46.73,4.45,3.28,5.33,5.2.35,8.9a253.68,253.68,0,0,0-30.52,26.68c-3.34,3.44-6.86,3.72-11.2,2.11-14.8-5.49-24.11-16.34-30.15-30.4-15-34.91-11.38-69.45,2.09-103.83,11.3-28.83,29.16-51.77,56.32-67.72C849.47,716.52,890.29,734.34,903.86,775Z" transform="translate(-323.37 -177.67)"/></svg>