<?xml version="1.0" encoding="utf-8"?>
<!-- Generator: Adobe Illustrator 22.1.0, SVG Export Plug-In . SVG Version: 6.00 Build 0)  -->
<svg version="1.1" id="Capa_1" xmlns="http://www.w3.org/2000/svg" xmlns:xlink="http://www.w3.org/1999/xlink" x="0px" y="0px"
	 viewBox="0 0 763.4 763.4" style="enable-background:new 0 0 763.4 763.4;" xml:space="preserve">
<style type="text/css">
	.st0{fill:none;stroke:#FFFFFF;stroke-width:6;stroke-miterlimit:10;}
</style>
<rect x="-3264.8" y="-328.9" width="1419.1" height="1419.1"/>
<rect x="-1826.8" y="-328.9" width="1419.1" height="1419.1"/>
<title>Mesa de trabajo 1</title>
<line class="st0" x1="-2949.2" y1="85.9" x2="-2949.2" y2="708.7"/>
<line class="st0" x1="-2329.7" y1="58.8" x2="-2542.8" y2="744.5"/>
<line class="st0" x1="-2620.5" y1="86.6" x2="-2950.5" y2="86.6"/>
<line class="st0" x1="-2100.5" y1="329.2" x2="-2950.5" y2="329.2"/>
<g>
	<line class="st0" x1="-1313.6" y1="199.6" x2="-1313.6" y2="538.4"/>
	<line class="st0" x1="-976.5" y1="184.9" x2="-1092.5" y2="557.9"/>
	<line class="st0" x1="-1134.8" y1="200" x2="-1314.3" y2="200"/>
	<line class="st0" x1="-851.9" y1="332" x2="-1314.3" y2="332"/>
</g>
<polyline class="st0" points="-741.6,273.4 -741.6,3 -1499,3 -1499,760.4 -1206.2,760.4 "/>
<polyline class="st0" points="760.4,273.4 760.4,3 3,3 3,760.4 295.8,760.4 "/>
<text transform="matrix(1 0 0 1 -1254.7064 763.2202)" style="fill:#FFFFFF; font-family:'Montserrat-Light'; font-size:82.1941px;">ERROR 404</text>
<text transform="matrix(1 0 0 1 -1167.7064 827.5535)" style="fill:#FFFFFF; font-family:'Montserrat-Light'; font-size:53px;">File Not Found</text>
</svg>
